<mxfile host="app.diagrams.net" modified="2021-11-29T08:20:04.551Z" agent="5.0 (Macintosh; Intel Mac OS X 10_15_7) AppleWebKit/537.36 (KHTML, like Gecko) Chrome/96.0.4664.45 Safari/537.36" etag="c_Lzk4-vVuMMFSIA2B5v" version="15.8.6" type="github">
  <diagram id="V7auc8fwCd2oP8UHlqEV" name="Page-1">
    <mxGraphModel dx="946" dy="560" grid="1" gridSize="10" guides="1" tooltips="1" connect="1" arrows="1" fold="1" page="1" pageScale="1" pageWidth="827" pageHeight="1169" math="0" shadow="0">
      <root>
        <mxCell id="0" />
        <mxCell id="1" parent="0" />
        <mxCell id="yIWMMB35mhVpVgA1rmcY-5" style="edgeStyle=orthogonalEdgeStyle;rounded=0;orthogonalLoop=1;jettySize=auto;html=1;exitX=0.5;exitY=1;exitDx=0;exitDy=0;entryX=0.5;entryY=0;entryDx=0;entryDy=0;" parent="1" source="yIWMMB35mhVpVgA1rmcY-1" target="yIWMMB35mhVpVgA1rmcY-2" edge="1">
          <mxGeometry relative="1" as="geometry" />
        </mxCell>
        <mxCell id="yIWMMB35mhVpVgA1rmcY-1" value="CDN（加速器）" style="rounded=0;whiteSpace=wrap;html=1;" parent="1" vertex="1">
          <mxGeometry x="80" y="320" width="120" height="60" as="geometry" />
        </mxCell>
        <mxCell id="yIWMMB35mhVpVgA1rmcY-6" style="edgeStyle=orthogonalEdgeStyle;rounded=0;orthogonalLoop=1;jettySize=auto;html=1;exitX=0.5;exitY=1;exitDx=0;exitDy=0;entryX=0.5;entryY=0;entryDx=0;entryDy=0;" parent="1" source="yIWMMB35mhVpVgA1rmcY-2" target="yIWMMB35mhVpVgA1rmcY-3" edge="1">
          <mxGeometry relative="1" as="geometry" />
        </mxCell>
        <mxCell id="yIWMMB35mhVpVgA1rmcY-2" value="Lvs（负载均衡）" style="rounded=0;whiteSpace=wrap;html=1;" parent="1" vertex="1">
          <mxGeometry x="80" y="440" width="120" height="60" as="geometry" />
        </mxCell>
        <mxCell id="yIWMMB35mhVpVgA1rmcY-7" style="edgeStyle=orthogonalEdgeStyle;rounded=0;orthogonalLoop=1;jettySize=auto;html=1;exitX=1;exitY=0.5;exitDx=0;exitDy=0;entryX=0;entryY=0.5;entryDx=0;entryDy=0;" parent="1" source="yIWMMB35mhVpVgA1rmcY-3" target="yIWMMB35mhVpVgA1rmcY-4" edge="1">
          <mxGeometry relative="1" as="geometry" />
        </mxCell>
        <mxCell id="yIWMMB35mhVpVgA1rmcY-3" value="Nginx（负载均衡）" style="rounded=0;whiteSpace=wrap;html=1;" parent="1" vertex="1">
          <mxGeometry x="80" y="560" width="120" height="60" as="geometry" />
        </mxCell>
        <mxCell id="yIWMMB35mhVpVgA1rmcY-13" style="edgeStyle=orthogonalEdgeStyle;rounded=0;orthogonalLoop=1;jettySize=auto;html=1;exitX=1;exitY=0.5;exitDx=0;exitDy=0;entryX=0;entryY=0.5;entryDx=0;entryDy=0;" parent="1" source="yIWMMB35mhVpVgA1rmcY-4" target="yIWMMB35mhVpVgA1rmcY-12" edge="1">
          <mxGeometry relative="1" as="geometry" />
        </mxCell>
        <mxCell id="yIWMMB35mhVpVgA1rmcY-18" style="edgeStyle=orthogonalEdgeStyle;rounded=0;orthogonalLoop=1;jettySize=auto;html=1;exitX=0.25;exitY=1;exitDx=0;exitDy=0;entryX=0.25;entryY=0;entryDx=0;entryDy=0;" parent="1" source="yIWMMB35mhVpVgA1rmcY-4" target="yIWMMB35mhVpVgA1rmcY-16" edge="1">
          <mxGeometry relative="1" as="geometry" />
        </mxCell>
        <mxCell id="yIWMMB35mhVpVgA1rmcY-4" value="服务集群" style="rounded=0;whiteSpace=wrap;html=1;" parent="1" vertex="1">
          <mxGeometry x="240" y="320" width="120" height="240" as="geometry" />
        </mxCell>
        <mxCell id="yIWMMB35mhVpVgA1rmcY-8" value="Tomcat" style="rounded=0;whiteSpace=wrap;html=1;" parent="1" vertex="1">
          <mxGeometry x="250" y="335" width="100" height="30" as="geometry" />
        </mxCell>
        <mxCell id="yIWMMB35mhVpVgA1rmcY-9" value="Tomcat" style="rounded=0;whiteSpace=wrap;html=1;" parent="1" vertex="1">
          <mxGeometry x="250" y="480" width="100" height="30" as="geometry" />
        </mxCell>
        <mxCell id="yIWMMB35mhVpVgA1rmcY-10" value="Tomcat" style="rounded=0;whiteSpace=wrap;html=1;" parent="1" vertex="1">
          <mxGeometry x="250" y="380" width="100" height="30" as="geometry" />
        </mxCell>
        <mxCell id="yIWMMB35mhVpVgA1rmcY-11" value="Tomcat" style="rounded=0;whiteSpace=wrap;html=1;" parent="1" vertex="1">
          <mxGeometry x="250" y="520" width="100" height="30" as="geometry" />
        </mxCell>
        <mxCell id="yIWMMB35mhVpVgA1rmcY-12" value="注册中心" style="rounded=0;whiteSpace=wrap;html=1;" parent="1" vertex="1">
          <mxGeometry x="400" y="320" width="120" height="60" as="geometry" />
        </mxCell>
        <mxCell id="yIWMMB35mhVpVgA1rmcY-15" style="edgeStyle=orthogonalEdgeStyle;rounded=0;orthogonalLoop=1;jettySize=auto;html=1;exitX=0.5;exitY=0;exitDx=0;exitDy=0;entryX=0.5;entryY=1;entryDx=0;entryDy=0;" parent="1" source="yIWMMB35mhVpVgA1rmcY-14" target="yIWMMB35mhVpVgA1rmcY-12" edge="1">
          <mxGeometry relative="1" as="geometry" />
        </mxCell>
        <mxCell id="yIWMMB35mhVpVgA1rmcY-21" style="edgeStyle=orthogonalEdgeStyle;rounded=0;orthogonalLoop=1;jettySize=auto;html=1;exitX=1;exitY=0.5;exitDx=0;exitDy=0;entryX=0;entryY=0.5;entryDx=0;entryDy=0;" parent="1" source="yIWMMB35mhVpVgA1rmcY-14" target="yIWMMB35mhVpVgA1rmcY-20" edge="1">
          <mxGeometry relative="1" as="geometry" />
        </mxCell>
        <mxCell id="yIWMMB35mhVpVgA1rmcY-14" value="Dubbo-Admin&lt;br&gt;（服务提供者）" style="rounded=0;whiteSpace=wrap;html=1;" parent="1" vertex="1">
          <mxGeometry x="400" y="420" width="120" height="200" as="geometry" />
        </mxCell>
        <mxCell id="yIWMMB35mhVpVgA1rmcY-19" style="edgeStyle=orthogonalEdgeStyle;rounded=0;orthogonalLoop=1;jettySize=auto;html=1;exitX=0.75;exitY=0;exitDx=0;exitDy=0;entryX=0.75;entryY=1;entryDx=0;entryDy=0;" parent="1" source="yIWMMB35mhVpVgA1rmcY-16" target="yIWMMB35mhVpVgA1rmcY-4" edge="1">
          <mxGeometry relative="1" as="geometry" />
        </mxCell>
        <mxCell id="yIWMMB35mhVpVgA1rmcY-16" value="xxxDFS&lt;br&gt;（分布式文件系统）" style="rounded=0;whiteSpace=wrap;html=1;" parent="1" vertex="1">
          <mxGeometry x="240" y="590" width="120" height="30" as="geometry" />
        </mxCell>
        <mxCell id="yIWMMB35mhVpVgA1rmcY-29" style="edgeStyle=orthogonalEdgeStyle;rounded=0;orthogonalLoop=1;jettySize=auto;html=1;exitX=1;exitY=0.5;exitDx=0;exitDy=0;entryX=0;entryY=0.5;entryDx=0;entryDy=0;" parent="1" source="yIWMMB35mhVpVgA1rmcY-20" target="yIWMMB35mhVpVgA1rmcY-22" edge="1">
          <mxGeometry relative="1" as="geometry" />
        </mxCell>
        <mxCell id="yIWMMB35mhVpVgA1rmcY-20" value="MQ&lt;br&gt;（消息中间件）&lt;br&gt;队列机制&lt;br&gt;异步" style="rounded=0;whiteSpace=wrap;html=1;" parent="1" vertex="1">
          <mxGeometry x="560" y="320" width="120" height="300" as="geometry" />
        </mxCell>
        <mxCell id="yIWMMB35mhVpVgA1rmcY-30" style="edgeStyle=orthogonalEdgeStyle;rounded=0;orthogonalLoop=1;jettySize=auto;html=1;exitX=1;exitY=0.5;exitDx=0;exitDy=0;entryX=0;entryY=0.5;entryDx=0;entryDy=0;" parent="1" source="yIWMMB35mhVpVgA1rmcY-22" target="yIWMMB35mhVpVgA1rmcY-28" edge="1">
          <mxGeometry relative="1" as="geometry" />
        </mxCell>
        <mxCell id="yIWMMB35mhVpVgA1rmcY-22" value="缓存" style="rounded=0;whiteSpace=wrap;html=1;" parent="1" vertex="1">
          <mxGeometry x="720" y="320" width="120" height="300" as="geometry" />
        </mxCell>
        <mxCell id="yIWMMB35mhVpVgA1rmcY-23" value="Redis" style="rounded=0;whiteSpace=wrap;html=1;" parent="1" vertex="1">
          <mxGeometry x="730" y="335" width="100" height="30" as="geometry" />
        </mxCell>
        <mxCell id="yIWMMB35mhVpVgA1rmcY-25" value="Redis" style="rounded=0;whiteSpace=wrap;html=1;" parent="1" vertex="1">
          <mxGeometry x="730" y="380" width="100" height="30" as="geometry" />
        </mxCell>
        <mxCell id="yIWMMB35mhVpVgA1rmcY-26" value="Redis" style="rounded=0;whiteSpace=wrap;html=1;" parent="1" vertex="1">
          <mxGeometry x="730" y="575" width="100" height="30" as="geometry" />
        </mxCell>
        <mxCell id="yIWMMB35mhVpVgA1rmcY-27" value="Redis" style="rounded=0;whiteSpace=wrap;html=1;" parent="1" vertex="1">
          <mxGeometry x="730" y="530" width="100" height="30" as="geometry" />
        </mxCell>
        <mxCell id="yIWMMB35mhVpVgA1rmcY-28" value="" style="rounded=0;whiteSpace=wrap;html=1;" parent="1" vertex="1">
          <mxGeometry x="880" y="320" width="120" height="300" as="geometry" />
        </mxCell>
        <mxCell id="yIWMMB35mhVpVgA1rmcY-31" value="Redis" style="rounded=0;whiteSpace=wrap;html=1;" parent="1" vertex="1">
          <mxGeometry x="890" y="335" width="70" height="30" as="geometry" />
        </mxCell>
        <mxCell id="yIWMMB35mhVpVgA1rmcY-32" value="Redis" style="rounded=0;whiteSpace=wrap;html=1;" parent="1" vertex="1">
          <mxGeometry x="900" y="335" width="70" height="30" as="geometry" />
        </mxCell>
        <mxCell id="yIWMMB35mhVpVgA1rmcY-33" value="Redis" style="rounded=0;whiteSpace=wrap;html=1;" parent="1" vertex="1">
          <mxGeometry x="910" y="335" width="70" height="30" as="geometry" />
        </mxCell>
        <mxCell id="yIWMMB35mhVpVgA1rmcY-34" value="只读数据库" style="rounded=0;whiteSpace=wrap;html=1;" parent="1" vertex="1">
          <mxGeometry x="922" y="335" width="70" height="30" as="geometry" />
        </mxCell>
        <mxCell id="yIWMMB35mhVpVgA1rmcY-35" value="Redis" style="rounded=0;whiteSpace=wrap;html=1;" parent="1" vertex="1">
          <mxGeometry x="890" y="546" width="100" height="30" as="geometry" />
        </mxCell>
        <mxCell id="yIWMMB35mhVpVgA1rmcY-37" value="Redis" style="rounded=0;whiteSpace=wrap;html=1;" parent="1" vertex="1">
          <mxGeometry x="890" y="555" width="100" height="30" as="geometry" />
        </mxCell>
        <mxCell id="yIWMMB35mhVpVgA1rmcY-38" value="Redis" style="rounded=0;whiteSpace=wrap;html=1;" parent="1" vertex="1">
          <mxGeometry x="890" y="564" width="100" height="30" as="geometry" />
        </mxCell>
        <mxCell id="yIWMMB35mhVpVgA1rmcY-39" value="只写数据库" style="rounded=0;whiteSpace=wrap;html=1;" parent="1" vertex="1">
          <mxGeometry x="890" y="573" width="100" height="30" as="geometry" />
        </mxCell>
        <mxCell id="yIWMMB35mhVpVgA1rmcY-48" value="" style="endArrow=classic;startArrow=classic;html=1;rounded=0;shape=link;entryX=0.25;entryY=1;entryDx=0;entryDy=0;exitX=0.5;exitY=0;exitDx=0;exitDy=0;" parent="1" source="yIWMMB35mhVpVgA1rmcY-35" target="yIWMMB35mhVpVgA1rmcY-34" edge="1">
          <mxGeometry width="50" height="50" relative="1" as="geometry">
            <mxPoint x="930" y="440" as="sourcePoint" />
            <mxPoint x="980" y="390" as="targetPoint" />
          </mxGeometry>
        </mxCell>
        <mxCell id="yIWMMB35mhVpVgA1rmcY-49" value="Mycat（数据同步）" style="edgeLabel;html=1;align=center;verticalAlign=middle;resizable=0;points=[];" parent="yIWMMB35mhVpVgA1rmcY-48" vertex="1" connectable="0">
          <mxGeometry x="0.0828" y="-2" relative="1" as="geometry">
            <mxPoint as="offset" />
          </mxGeometry>
        </mxCell>
      </root>
    </mxGraphModel>
  </diagram>
</mxfile>
